<svg width="25" height="25" viewBox="0 0 25 25" fill="none" xmlns="http://www.w3.org/2000/svg">
<path fill-rule="evenodd" clip-rule="evenodd" d="M16.5787 3.52148H8.57874C5.81732 3.52148 3.57874 5.76006 3.57874 8.52148V16.5215C3.57874 19.2829 5.81732 21.5215 8.57874 21.5215H16.5787C19.3401 21.5215 21.5787 19.2829 21.5787 16.5215V8.52148C21.5787 5.76006 19.3401 3.52148 16.5787 3.52148ZM19.8287 16.5215C19.8232 18.3141 18.3713 19.766 16.5787 19.7715H8.57874C6.78609 19.766 5.33423 18.3141 5.32874 16.5215V8.52148C5.33423 6.72883 6.78609 5.27697 8.57874 5.27148H16.5787C18.3713 5.27697 19.8232 6.72883 19.8287 8.52148V16.5215ZM17.3287 8.77148C17.881 8.77148 18.3287 8.32376 18.3287 7.77148C18.3287 7.2192 17.881 6.77148 17.3287 6.77148C16.7764 6.77148 16.3287 7.2192 16.3287 7.77148C16.3287 8.32376 16.7764 8.77148 17.3287 8.77148ZM12.5787 8.02148C10.0935 8.02148 8.07874 10.0362 8.07874 12.5215C8.07874 15.0068 10.0935 17.0215 12.5787 17.0215C15.064 17.0215 17.0787 15.0068 17.0787 12.5215C17.0814 11.3272 16.6081 10.1811 15.7636 9.33656C14.9191 8.49207 13.773 8.01882 12.5787 8.02148ZM9.82874 12.5215C9.82874 14.0403 11.0599 15.2715 12.5787 15.2715C14.0975 15.2715 15.3287 14.0403 15.3287 12.5215C15.3287 11.0027 14.0975 9.77148 12.5787 9.77148C11.0599 9.77148 9.82874 11.0027 9.82874 12.5215Z" fill="#0071BC"/>
</svg>
