<svg width="25" height="25" viewBox="0 0 25 25" fill="none" xmlns="http://www.w3.org/2000/svg">
<path d="M22.1717 7.48182C22.0578 7.05922 21.8352 6.67382 21.5261 6.36398C21.2169 6.05415 20.832 5.83068 20.4097 5.71582C18.8437 5.28582 12.5787 5.27882 12.5787 5.27882C12.5787 5.27882 6.3147 5.27182 4.7477 5.68282C4.32562 5.80296 3.94152 6.02959 3.63226 6.34095C3.32301 6.65231 3.09898 7.03794 2.9817 7.46082C2.5687 9.02682 2.5647 12.2748 2.5647 12.2748C2.5647 12.2748 2.5607 15.5388 2.9707 17.0888C3.2007 17.9458 3.8757 18.6228 4.7337 18.8538C6.3157 19.2838 12.5637 19.2908 12.5637 19.2908C12.5637 19.2908 18.8287 19.2978 20.3947 18.8878C20.8172 18.7732 21.2024 18.5502 21.5124 18.241C21.8223 17.9318 22.0461 17.5471 22.1617 17.1248C22.5757 15.5598 22.5787 12.3128 22.5787 12.3128C22.5787 12.3128 22.5987 9.04782 22.1717 7.48182ZM10.5747 15.2838L10.5797 9.28382L15.7867 12.2888L10.5747 15.2838Z" fill="#0071BC"/>
</svg>
