<svg width="49" height="49" viewBox="0 0 49 49" fill="none" xmlns="http://www.w3.org/2000/svg">
<path d="M36.3263 24.8647C36.1407 24.6788 35.9203 24.5314 35.6777 24.4307C35.435 24.3301 35.175 24.2783 34.9123 24.2783C34.6496 24.2783 34.3895 24.3301 34.1469 24.4307C33.9043 24.5314 33.6839 24.6788 33.4983 24.8647L30.3103 28.0527C28.8323 27.6127 26.0743 26.6127 24.3263 24.8647C22.5783 23.1167 21.5783 20.3587 21.1383 18.8807L24.3263 15.6927C24.5122 15.5071 24.6597 15.2867 24.7603 15.0441C24.8609 14.8015 24.9127 14.5414 24.9127 14.2787C24.9127 14.0161 24.8609 13.756 24.7603 13.5133C24.6597 13.2707 24.5122 13.0503 24.3263 12.8647L16.3263 4.86472C16.1407 4.67883 15.9203 4.53136 15.6777 4.43073C15.435 4.33011 15.175 4.27832 14.9123 4.27832C14.6496 4.27832 14.3895 4.33011 14.1469 4.43073C13.9043 4.53136 13.6839 4.67883 13.4983 4.86472L8.07429 10.2887C7.31429 11.0487 6.88629 12.0927 6.90229 13.1587C6.94829 16.0067 7.70229 25.8987 15.4983 33.6947C23.2943 41.4907 33.1863 42.2427 36.0363 42.2907H36.0923C37.1483 42.2907 38.1463 41.8747 38.9023 41.1187L44.3263 35.6947C44.5122 35.5091 44.6597 35.2887 44.7603 35.0461C44.8609 34.8035 44.9127 34.5434 44.9127 34.2807C44.9127 34.0181 44.8609 33.758 44.7603 33.5153C44.6597 33.2727 44.5122 33.0523 44.3263 32.8667L36.3263 24.8647ZM36.0723 38.2887C33.5763 38.2467 25.0363 37.5767 18.3263 30.8647C11.5943 24.1327 10.9423 15.5627 10.9023 13.1167L14.9123 9.10672L20.0843 14.2787L17.4983 16.8647C17.2632 17.0996 17.0904 17.3894 16.9954 17.7079C16.9004 18.0263 16.8863 18.3634 16.9543 18.6887C17.0023 18.9187 18.1763 24.3727 21.4963 27.6927C24.8163 31.0127 30.2703 32.1867 30.5003 32.2347C30.8254 32.3046 31.1628 32.2916 31.4816 32.1969C31.8003 32.1022 32.0901 31.9288 32.3243 31.6927L34.9123 29.1067L40.0843 34.2787L36.0723 38.2887Z" fill="#0071BC"/>
</svg>
