<svg width="107" height="40" viewBox="0 0 107 40" fill="none" xmlns="http://www.w3.org/2000/svg">
<g clip-path="url(#clip0_23_698)">
<path d="M19.6686 18.2108H24.8218L35.3769 0.406469H29.164L24.3927 8.89136L23.8113 0.35498H18.7096L13.5822 8.89136L13.3548 0.406469H7.29419L8.30465 18.2108H13.4578L18.9113 9.42126L19.6686 18.2108Z" fill="#0071BC"/>
<path d="M46.2357 0.278809H40.3767L28.1546 18.0831H34.595L36.1353 15.7082H42.3226L42.6251 18.0831H48.9131L46.2357 0.278809ZM38.7613 11.5162L41.5138 7.22333L41.9943 11.5162H38.7613Z" fill="#0071BC"/>
<path d="M51.5881 18.084H57.4986L60.9075 5.40708H66.11L67.4487 0.40625H51.1333L49.7946 5.40708H54.9971L51.5881 18.084Z" fill="#0071BC"/>
<path d="M80.4774 13.2355H71.0829L71.6128 11.3154H80.25L81.387 7.04828H72.7498L73.2304 5.25476H82.4984L83.8113 0.40625H68.7337L63.9861 18.084H79.1902L80.4774 13.2355Z" fill="#0071BC"/>
<path d="M86.8916 18.0837L88.256 13.0335H89.7213L91.6908 18.0837H98.0539L95.6039 12.199C99.0901 11.1134 100.527 8.73853 100.527 5.98603C100.527 4.59798 100.124 3.28288 99.1394 2.29816C97.953 1.11178 95.8806 0.403809 92.624 0.403809H85.7288L80.9811 18.0816H86.8916V18.0837ZM90.3006 5.3553H92.3966C93.229 5.3553 93.8104 5.53121 94.1386 5.85945C94.3918 6.11261 94.5183 6.44085 94.5183 6.79483C94.5183 7.90613 93.4821 8.81576 91.5127 8.81576H89.3652L90.3006 5.3553Z" fill="#0071BC"/>
<path d="M28.1342 21.4502H14.7986L14.6721 21.9544H21.0374L16.4398 39.1279H16.9955L21.593 21.9544H28.0076L28.1342 21.4502Z" fill="#7AC943"/>
<path d="M36.6676 21.3228L23.3836 39.1271H24.0143L27.9532 33.8238H39.1906L40.2761 39.1271H40.806L37.1439 21.3228H36.6633H36.6676ZM28.3329 33.3175L36.7685 22.0286L39.0919 33.3175H28.3329Z" fill="#7AC943"/>
<path d="M58.5875 38.3706L49.6971 21.4502H49.1929L44.4453 39.1279H44.9752L49.5212 22.2075L58.4115 39.1279H58.9157L63.6634 21.4502H63.1335L58.5875 38.3706Z" fill="#7AC943"/>
<path d="M82.6283 21.4502H81.7937L66.4158 33.4213L69.6231 21.4502H69.0653L64.3434 39.1279H64.899L66.212 34.1529L72.5258 29.2786L77.5781 39.1279H78.1831L72.9549 28.9246L82.6283 21.4502Z" fill="#7AC943"/>
<path d="M87.9545 26.7793C89.2181 26.7793 90.8336 27.2083 92.0972 28.2939L92.4512 27.9141C91.1125 26.7514 89.2181 26.2729 87.9802 26.2729C85.1012 26.2729 83.4342 27.9399 83.4342 29.6562C83.4342 31.3725 85.0497 32.1555 86.9955 32.915C89.1173 33.7474 90.3552 34.3288 90.3552 35.97C90.3552 37.2829 88.9414 38.849 86.2382 38.849C84.3696 38.849 82.7284 38.1926 81.364 36.9547L81.01 37.3344C82.3487 38.6474 84.3696 39.3553 86.2125 39.3553C89.2181 39.3553 90.9087 37.5361 90.9087 35.9206C90.9087 34.052 89.3683 33.2947 87.3238 32.4859C85.4809 31.7543 83.9899 31.1472 83.9899 29.6068C83.9899 28.2166 85.3779 26.7793 87.9545 26.7793Z" fill="#7AC943"/>
<path d="M2.19929 8.63731H3.32561L3.25266 7.3501H0.912079V32.2834H12.2718L12.615 30.9962H2.19929V8.63731Z" fill="#0071BC"/>
<path d="M102.641 7.3501L102.568 8.63731H105.625V30.9962H96.4495L96.7927 32.2834H106.912V7.3501H102.641Z" fill="#0071BC"/>
</g>
<defs>
<clipPath id="clip0_23_698">
<rect width="106" height="39.0756" fill="white" transform="translate(0.912079 0.278809)"/>
</clipPath>
</defs>
</svg>
