<svg width="25" height="25" viewBox="0 0 25 25" fill="none" xmlns="http://www.w3.org/2000/svg">
<path d="M19.9121 12.5291V13.029C19.9121 13.3052 19.6883 13.5291 19.4121 13.5291H13.6621V19.2791C13.6621 19.5552 13.4382 19.779 13.1621 19.779H12.6621C12.386 19.779 12.1621 19.5552 12.1621 19.2791V13.5291H6.41211C6.13597 13.5291 5.91211 13.3052 5.91211 13.029V12.5291C5.91211 12.2529 6.13597 12.0291 6.41211 12.0291H12.1621V6.27905C12.1621 6.00291 12.386 5.77905 12.6621 5.77905H13.1621C13.4382 5.77905 13.6621 6.00291 13.6621 6.27905V12.0291H19.4121C19.6883 12.0291 19.9121 12.2529 19.9121 12.5291Z" fill="black"/>
</svg>
