<svg width="33" height="33" viewBox="0 0 33 33" fill="none" xmlns="http://www.w3.org/2000/svg">
<path d="M26.2457 15.9458V16.6124C26.2457 16.9806 25.9473 17.2791 25.5791 17.2791H17.9124V24.9458C17.9124 25.3139 17.6139 25.6124 17.2457 25.6124H16.5791C16.2109 25.6124 15.9124 25.3139 15.9124 24.9458V17.2791H8.24577C7.87758 17.2791 7.5791 16.9806 7.5791 16.6124V15.9458C7.5791 15.5776 7.87758 15.2791 8.24577 15.2791H15.9124V7.61246C15.9124 7.24427 16.2109 6.9458 16.5791 6.9458H17.2457C17.6139 6.9458 17.9124 7.24427 17.9124 7.61246V15.2791H25.5791C25.9473 15.2791 26.2457 15.5776 26.2457 15.9458Z" fill="#7AC943"/>
</svg>
