<svg width="17" height="16" viewBox="0 0 17 16" fill="none" xmlns="http://www.w3.org/2000/svg">
<path fill-rule="evenodd" clip-rule="evenodd" d="M16.8265 6.33468L16.8903 6.53468C16.9428 6.68563 16.8986 6.8534 16.7786 6.95868L12.9013 10.2787L14.0501 15.2547C14.089 15.4137 14.0293 15.5807 13.8985 15.6787L13.723 15.7987C13.6548 15.8523 13.5703 15.8805 13.4837 15.8787C13.4106 15.8802 13.3387 15.8608 13.2763 15.8227L8.91227 13.1587L4.57222 15.8227C4.50982 15.8608 4.43784 15.8802 4.36478 15.8787C4.27818 15.8805 4.19362 15.8523 4.12545 15.7987L3.92599 15.6787C3.79519 15.5807 3.73551 15.4137 3.77441 15.2547L4.92325 10.2787L1.0539 6.96668C0.927716 6.86202 0.879951 6.6896 0.934229 6.53468L1.02199 6.33468C1.06865 6.17661 1.20894 6.06472 1.37302 6.05468L6.47099 5.64668L8.42561 0.934678C8.48824 0.778194 8.64042 0.676464 8.80856 0.678678H9.01596C9.1826 0.675132 9.33316 0.777916 9.39092 0.934678L11.3775 5.64668L16.4755 6.05468C16.6396 6.06472 16.7798 6.17661 16.8265 6.33468ZM12.1992 13.5267L11.3057 9.78269L14.2336 7.27868L10.3962 6.97468L8.91227 3.40668V11.5187L12.1992 13.5267Z" fill="black"/>
</svg>
