<svg width="17" height="16" viewBox="0 0 17 16" fill="none" xmlns="http://www.w3.org/2000/svg">
<path d="M8.16883 1.21302C8.44383 0.559852 9.38043 0.559853 9.65543 1.21302L11.2784 5.06814C11.3944 5.3435 11.6566 5.53165 11.9575 5.55548L16.1703 5.88914C16.8841 5.94567 17.1735 6.82567 16.6297 7.28588L13.42 10.0021C13.1907 10.1961 13.0905 10.5006 13.1606 10.7906L14.1412 14.852C14.3073 15.5401 13.5497 16.084 12.9385 15.7153L9.33176 13.5388C9.07413 13.3834 8.75013 13.3834 8.49251 13.5388L4.88571 15.7153C4.27461 16.084 3.51688 15.5401 3.68302 14.852L4.66366 10.7906C4.7337 10.5006 4.63358 10.1961 4.40432 10.0021L1.19456 7.28588C0.650734 6.82567 0.940164 5.94567 1.65394 5.88914L5.86681 5.55548C6.16772 5.53165 6.42985 5.3435 6.54578 5.06814L8.16883 1.21302Z" fill="black"/>
</svg>
