<svg width="49" height="49" viewBox="0 0 49 49" fill="none" xmlns="http://www.w3.org/2000/svg">
<path d="M24.2455 28.2788C28.6575 28.2788 32.2455 24.6908 32.2455 20.2788C32.2455 15.8668 28.6575 12.2788 24.2455 12.2788C19.8335 12.2788 16.2455 15.8668 16.2455 20.2788C16.2455 24.6908 19.8335 28.2788 24.2455 28.2788ZM24.2455 16.2788C26.4515 16.2788 28.2455 18.0728 28.2455 20.2788C28.2455 22.4848 26.4515 24.2788 24.2455 24.2788C22.0395 24.2788 20.2455 22.4848 20.2455 20.2788C20.2455 18.0728 22.0395 16.2788 24.2455 16.2788ZM23.0855 43.9068C23.424 44.1485 23.8296 44.2785 24.2455 44.2785C24.6615 44.2785 25.067 44.1485 25.4055 43.9068C26.0135 43.4768 40.3035 33.1588 40.2455 20.2788C40.2455 11.4568 33.0675 4.27881 24.2455 4.27881C15.4235 4.27881 8.24554 11.4568 8.24554 20.2688C8.18754 33.1588 22.4775 43.4768 23.0855 43.9068ZM24.2455 8.27881C30.8635 8.27881 36.2455 13.6608 36.2455 20.2888C36.2875 29.1648 27.4695 37.1348 24.2455 39.7488C21.0235 37.1328 12.2035 29.1608 12.2455 20.2788C12.2455 13.6608 17.6275 8.27881 24.2455 8.27881Z" fill="#0071BC"/>
<path d="M24.2455 28.2788C28.6575 28.2788 32.2455 24.6908 32.2455 20.2788C32.2455 15.8668 28.6575 12.2788 24.2455 12.2788C19.8335 12.2788 16.2455 15.8668 16.2455 20.2788C16.2455 24.6908 19.8335 28.2788 24.2455 28.2788ZM24.2455 16.2788C26.4515 16.2788 28.2455 18.0728 28.2455 20.2788C28.2455 22.4848 26.4515 24.2788 24.2455 24.2788C22.0395 24.2788 20.2455 22.4848 20.2455 20.2788C20.2455 18.0728 22.0395 16.2788 24.2455 16.2788ZM23.0855 43.9068C23.424 44.1485 23.8296 44.2785 24.2455 44.2785C24.6615 44.2785 25.067 44.1485 25.4055 43.9068C26.0135 43.4768 40.3035 33.1588 40.2455 20.2788C40.2455 11.4568 33.0675 4.27881 24.2455 4.27881C15.4235 4.27881 8.24554 11.4568 8.24554 20.2688C8.18754 33.1588 22.4775 43.4768 23.0855 43.9068ZM24.2455 8.27881C30.8635 8.27881 36.2455 13.6608 36.2455 20.2888C36.2875 29.1648 27.4695 37.1348 24.2455 39.7488C21.0235 37.1328 12.2035 29.1608 12.2455 20.2788C12.2455 13.6608 17.6275 8.27881 24.2455 8.27881Z" fill="#0071BC"/>
</svg>
