<svg width="49" height="49" viewBox="0 0 49 49" fill="none" xmlns="http://www.w3.org/2000/svg">
<path d="M40.5787 8.27881H8.57874C6.37274 8.27881 4.57874 10.0728 4.57874 12.2788V36.2788C4.57874 38.4848 6.37274 40.2788 8.57874 40.2788H40.5787C42.7847 40.2788 44.5787 38.4848 44.5787 36.2788V12.2788C44.5787 10.0728 42.7847 8.27881 40.5787 8.27881ZM40.5787 12.2788V13.3008L24.5787 25.7468L8.57874 13.3028V12.2788H40.5787ZM8.57874 36.2788V18.3668L23.3507 29.8568C23.701 30.1319 24.1334 30.2814 24.5787 30.2814C25.0241 30.2814 25.4565 30.1319 25.8067 29.8568L40.5787 18.3668L40.5827 36.2788H8.57874Z" fill="#0071BC"/>
</svg>
