<svg width="25" height="25" viewBox="0 0 25 25" fill="none" xmlns="http://www.w3.org/2000/svg">
<path fill-rule="evenodd" clip-rule="evenodd" d="M5.07874 3.52148C4.25031 3.52148 3.57874 4.19305 3.57874 5.02148V20.0215C3.57874 20.8499 4.25031 21.5215 5.07874 21.5215H20.0787C20.9071 21.5215 21.5787 20.8499 21.5787 20.0215V5.02148C21.5787 4.19305 20.9071 3.52148 20.0787 3.52148H5.07874ZM9.09949 7.5242C9.10512 8.48045 8.38935 9.06967 7.53997 9.06545C6.73981 9.06123 6.04231 8.4242 6.04653 7.52561C6.05075 6.68045 6.71872 6.00123 7.58638 6.02092C8.46669 6.04061 9.10512 6.68608 9.09949 7.5242ZM12.8584 10.2832H10.3384H10.337V18.8431H13.0004V18.6434C13.0004 18.2635 13.0001 17.8835 12.9998 17.5034C12.999 16.4896 12.9981 15.4747 13.0033 14.4612C13.0047 14.2151 13.0159 13.9592 13.0792 13.7243C13.3168 12.8468 14.1058 12.2801 14.9861 12.4194C15.5514 12.5079 15.9254 12.8356 16.0829 13.3686C16.18 13.7018 16.2236 14.0604 16.2278 14.4078C16.2392 15.4554 16.2376 16.503 16.236 17.5507C16.2354 17.9205 16.2348 18.2905 16.2348 18.6603V18.8417H18.9067V18.6364C18.9067 18.1844 18.9065 17.7325 18.9062 17.2806C18.9057 16.1511 18.9051 15.0216 18.9081 13.8917C18.9095 13.3812 18.8547 12.8778 18.7295 12.3842C18.5425 11.6501 18.1558 11.0426 17.5272 10.6039C17.0814 10.2917 16.592 10.0906 16.045 10.0681C15.9827 10.0655 15.9199 10.0621 15.8568 10.0587C15.5771 10.0436 15.2928 10.0282 15.0254 10.0821C14.2604 10.2354 13.5883 10.5856 13.0806 11.2029C13.0216 11.2737 12.9639 11.3456 12.8778 11.4529L12.8584 11.4772V10.2832ZM6.26038 18.8459H8.91116V10.2888H6.26038V18.8459Z" fill="#0071BC"/>
</svg>
