<svg width="123" height="46" viewBox="0 0 123 46" fill="none" xmlns="http://www.w3.org/2000/svg">
<g clip-path="url(#clip0_23_840)">
<path d="M22.4822 21.4299H28.4158L40.5696 0.928916H33.4157L27.9217 10.6989L27.2523 0.869629H21.3779L15.4739 10.6989L15.2121 0.928916H8.23352L9.39703 21.4299H15.3307L21.6101 11.3091L22.4822 21.4299Z" fill="#0071BC"/>
<path d="M53.073 0.781738H46.3267L32.2534 21.2827H39.6692L41.4429 18.5481H48.5672L48.9155 21.2827H56.156L53.073 0.781738ZM44.4665 13.7211L47.6359 8.77807L48.1893 13.7211H44.4665Z" fill="#0071BC"/>
<path d="M59.2361 21.2834H66.0418L69.9671 6.68647H75.9575L77.499 0.928223H58.7124L57.171 6.68647H63.1614L59.2361 21.2834Z" fill="#0071BC"/>
<path d="M92.501 15.7006H81.6836L82.2937 13.4897H92.2391L93.5484 8.57624H83.603L84.1563 6.51108H94.828L96.3398 0.928223H78.9786L73.5118 21.2834H91.0188L92.501 15.7006Z" fill="#0071BC"/>
<path d="M99.8866 21.2832L101.458 15.4681H103.145L105.413 21.2832H112.74L109.918 14.5072C113.933 13.2572 115.588 10.5226 115.588 7.35324C115.588 5.75496 115.123 4.24067 113.99 3.1068C112.623 1.74073 110.237 0.925537 106.487 0.925537H98.5477L93.081 21.2807H99.8866V21.2832ZM103.812 6.62697H106.225C107.184 6.62697 107.853 6.82953 108.231 7.20749C108.523 7.49898 108.669 7.87694 108.669 8.28454C108.669 9.56415 107.475 10.6116 105.208 10.6116H102.735L103.812 6.62697Z" fill="#0071BC"/>
<path d="M32.2277 25.1599H16.8724L16.7266 25.7404H24.056L18.7621 45.5151H19.4019L24.6958 25.7404H32.082L32.2277 25.1599Z" fill="#7AC943"/>
<path d="M42.0536 25.0134L26.7576 45.5144H27.4838L32.0193 39.4078H44.9587L46.2086 45.5144H46.8188L42.602 25.0134H42.0487H42.0536ZM32.4565 38.8248L42.1697 25.8262L44.845 38.8248H32.4565Z" fill="#7AC943"/>
<path d="M67.2934 44.6431L57.0565 25.1599H56.476L51.0092 45.5151H51.6194L56.8539 26.0319L67.0908 45.5151H67.6713L73.1381 25.1599H72.5279L67.2934 44.6431Z" fill="#7AC943"/>
<path d="M94.9754 25.1599H94.0144L76.3074 38.9441L80.0005 25.1599H79.3582L73.9211 45.5151H74.5609L76.0727 39.7865L83.3428 34.174L89.1603 45.5151H89.8569L83.8368 33.7664L94.9754 25.1599Z" fill="#7AC943"/>
<path d="M101.108 31.2964C102.563 31.2964 104.423 31.7904 105.878 33.0404L106.286 32.6032C104.745 31.2643 102.563 30.7134 101.138 30.7134C97.8228 30.7134 95.9034 32.6328 95.9034 34.609C95.9034 36.5853 97.7636 37.4869 100.004 38.3614C102.447 39.3199 103.873 39.9893 103.873 41.8791C103.873 43.3909 102.245 45.1942 99.1321 45.1942C96.9805 45.1942 95.0907 44.4383 93.5196 43.013L93.112 43.4502C94.6535 44.962 96.9805 45.7772 99.1025 45.7772C102.563 45.7772 104.51 43.6824 104.51 41.8223C104.51 39.6707 102.736 38.7986 100.382 37.8673C98.2601 37.025 96.5432 36.3259 96.5432 34.5522C96.5432 32.9515 98.1415 31.2964 101.108 31.2964Z" fill="#7AC943"/>
<path d="M2.36694 10.4064H3.66384L3.57985 8.92419H0.884766V37.6339H13.965L14.3602 36.1517H2.36694V10.4064Z" fill="#0071BC"/>
<path d="M118.021 8.92419L117.937 10.4064H121.458V36.1517H110.892L111.287 37.6339H122.94V8.92419H118.021Z" fill="#0071BC"/>
</g>
<defs>
<clipPath id="clip0_23_840">
<rect width="122.055" height="44.9939" fill="white" transform="translate(0.884766 0.781738)"/>
</clipPath>
</defs>
</svg>
